<svg width="20" height="19" viewBox="0 0 20 19" fill="none" xmlns="http://www.w3.org/2000/svg">
    <path
        d="M9.14135 4.38507V2.38507C9.14135 1.82507 9.33468 1.35174 9.72135 0.965071C10.108 0.578404 10.5813 0.385071 11.1413 0.385071H13.1411V2.38507C13.1411 2.94507 12.9478 3.4184 12.5613 3.80507C12.1747 4.19174 11.7013 4.38507 11.1413 4.38507H9.14135ZM3.94535 9.88482C3.11568 9.88482 2.40893 9.5929 1.8251 9.00907C1.2411 8.42507 0.949097 7.71824 0.949097 6.88857V3.88507H3.9526C4.78226 3.88507 5.4891 4.17707 6.0731 4.76107C6.6571 5.3449 6.9491 6.05165 6.9491 6.88132V9.88482H3.94535ZM13.5451 18.3753C12.9224 18.3753 12.3277 18.2753 11.7608 18.0753C11.194 17.8753 10.6817 17.6003 10.2238 17.2503L9.0721 18.4023C8.9336 18.5407 8.75951 18.6115 8.54985 18.6148C8.34035 18.618 8.1631 18.5472 8.0181 18.4023C7.87326 18.2573 7.80243 18.0801 7.8056 17.8706C7.80893 17.6609 7.87976 17.4868 8.0181 17.3483L9.1701 16.1966C8.8201 15.7387 8.5451 15.2264 8.3451 14.6596C8.1451 14.0927 8.0451 13.498 8.0451 12.8753C8.0451 11.3497 8.57985 10.049 9.64935 8.97332C10.7187 7.89782 12.0173 7.36007 13.5451 7.36007H19.0508V12.8753C19.0508 14.401 18.514 15.6991 17.4403 16.7696C16.3665 17.8401 15.0681 18.3753 13.5451 18.3753ZM13.5451 16.8753C14.6618 16.8753 15.6034 16.4837 16.3701 15.7003C17.1368 14.917 17.5201 13.9753 17.5201 12.8753V8.87532H13.5451C12.4451 8.87532 11.5034 9.26282 10.7201 10.0378C9.93676 10.8128 9.5451 11.7587 9.5451 12.8753C9.5451 13.2972 9.60535 13.6982 9.72585 14.0783C9.84635 14.4583 10.0175 14.808 10.2393 15.1273L13.0181 12.3483C13.1631 12.2035 13.3388 12.1311 13.5451 12.1311C13.7514 12.1311 13.9271 12.2035 14.0721 12.3483C14.2169 12.4933 14.2893 12.669 14.2893 12.8753C14.2893 13.0817 14.2169 13.2573 14.0721 13.4023L11.2931 16.1811C11.6124 16.4029 11.9613 16.5741 12.3398 16.6946C12.7185 16.8151 13.1203 16.8753 13.5451 16.8753Z"
        fill="#ffffff" />
</svg>