<svg width="18" height="18" viewBox="0 0 18 18" fill="none" xmlns="http://www.w3.org/2000/svg">
    <path
        d="M8.99488 17.4808C8.78222 17.4808 8.60413 17.4089 8.46063 17.265C8.31697 17.1214 8.24513 16.9433 8.24513 16.7308V9.54429C7.24263 9.54429 6.28172 9.35454 5.36238 8.97504C4.44322 8.59554 3.63105 8.0532 2.92588 7.34804C2.22088 6.64287 1.6828 5.8307 1.31163 4.91154C0.940466 3.99237 0.754883 3.03145 0.754883 2.02879V1.41354C0.754883 1.1602 0.840549 0.947788 1.01188 0.776288C1.18322 0.604955 1.39563 0.519287 1.64913 0.519287H2.26438C3.24522 0.519287 4.19488 0.710621 5.11338 1.09329C6.03205 1.47595 6.84388 2.01987 7.54888 2.72504C8.07205 3.2482 8.50122 3.83254 8.83638 4.47804C9.17172 5.12354 9.4118 5.80912 9.55663 6.53479C9.67197 6.33479 9.80047 6.14529 9.94213 5.96629C10.0838 5.78745 10.2419 5.61087 10.4164 5.43654C11.1194 4.73254 11.9317 4.18895 12.8534 3.80579C13.7751 3.42245 14.7357 3.23079 15.7354 3.23079H16.3509C16.6042 3.23079 16.8165 3.31654 16.9879 3.48804C17.1594 3.65937 17.2451 3.8717 17.2451 4.12504V4.74029C17.2451 5.74012 17.0535 6.70087 16.6701 7.62254C16.287 8.5442 15.7434 9.35654 15.0394 10.0595C14.3342 10.7647 13.5262 11.3029 12.6154 11.674C11.7044 12.0452 10.7476 12.2308 9.74513 12.2308V16.7308C9.74513 16.9433 9.67322 17.1214 9.52938 17.265C9.38555 17.4089 9.20738 17.4808 8.99488 17.4808ZM8.25488 8.01929C8.25488 7.21929 8.10072 6.45679 7.79238 5.73179C7.48405 5.00679 7.04655 4.36095 6.47988 3.79429C5.91322 3.22762 5.26738 2.79012 4.54238 2.48179C3.81738 2.17345 3.05488 2.01929 2.25488 2.01929C2.25488 2.81929 2.40488 3.58595 2.70488 4.31929C3.00488 5.05262 3.43822 5.70262 4.00488 6.26929C4.57155 6.83595 5.22155 7.26929 5.95488 7.56929C6.68822 7.86929 7.45488 8.01929 8.25488 8.01929ZM9.74513 10.7308C10.5451 10.7308 11.3076 10.5808 12.0326 10.2808C12.7576 9.98079 13.4035 9.54745 13.9701 8.98079C14.5368 8.41412 14.9743 7.76412 15.2826 7.03079C15.591 6.29745 15.7451 5.53079 15.7451 4.73079C14.9451 4.73079 14.1785 4.88495 13.4451 5.19329C12.7118 5.50162 12.0618 5.93912 11.4951 6.50579C10.9285 7.07245 10.4951 7.71829 10.1951 8.44329C9.89513 9.16829 9.74513 9.93079 9.74513 10.7308Z"
        fill="#ffffff" />
</svg>