<svg width="17" height="17" viewBox="0 0 17 17" fill="none" xmlns="http://www.w3.org/2000/svg">
    <path
        d="M1.38738 16.6572L6.53938 11.5244C6.68421 11.3859 6.75663 11.2119 6.75663 11.0022C6.75663 10.7927 6.68421 10.6154 6.53938 10.4704C6.39455 10.3256 6.21888 10.2532 6.01238 10.2532C5.80605 10.2532 5.63046 10.3256 5.48563 10.4704L0.34313 15.6129C0.204796 15.7513 0.13563 15.9269 0.13563 16.1397C0.13563 16.3525 0.208048 16.5282 0.35288 16.6667C0.491381 16.8052 0.663797 16.8729 0.870131 16.8697C1.07646 16.8664 1.24888 16.7955 1.38738 16.6572ZM15.4739 14.7802C15.9394 13.9982 16.2875 13.1834 16.5181 12.3359C16.749 11.4884 16.8644 10.6249 16.8644 9.74544C16.8644 8.50327 16.6339 7.29594 16.1729 6.12344C15.712 4.95094 15.0073 3.8936 14.0586 2.95144C13.1098 2.0026 12.0466 1.29519 10.8691 0.829187C9.69163 0.363187 8.48813 0.130188 7.25863 0.130188C6.3728 0.130188 5.50771 0.248104 4.66338 0.483937C3.81921 0.719937 3.01121 1.0706 2.23938 1.53594C1.83171 1.79244 1.61121 2.15844 1.57788 2.63394C1.54455 3.1096 1.70996 3.52952 2.07413 3.89369L13.1164 14.9359C13.4804 15.2999 13.9028 15.4669 14.3836 15.4369C14.8643 15.4068 15.2277 15.1879 15.4739 14.7802ZM14.2239 13.9052L12.6431 12.3244C12.9098 11.9616 13.1688 11.584 13.4201 11.1917C13.6715 10.7994 13.8971 10.3942 14.0971 9.97619C14.2971 9.55835 14.464 9.12602 14.5979 8.67919C14.7319 8.23236 14.8316 7.77944 14.8971 7.32044C15.292 8.41927 15.4262 9.54202 15.2999 10.6887C15.1737 11.8355 14.815 12.9077 14.2239 13.9052ZM11.5394 11.2707L5.73938 5.42044C6.45605 4.87044 7.18171 4.43102 7.91638 4.10219C8.65088 3.77336 9.3428 3.55127 9.99213 3.43594C10.6416 3.3206 11.2285 3.31102 11.7529 3.40719C12.2772 3.50335 12.6842 3.69627 12.9739 3.98594C13.2637 4.28594 13.4567 4.69811 13.5529 5.22244C13.649 5.74677 13.641 6.33619 13.5289 6.99069C13.4167 7.64519 13.1962 8.33877 12.8674 9.07144C12.5384 9.80427 12.0957 10.5374 11.5394 11.2707ZM3.05463 2.78594C4.07913 2.1756 5.16638 1.8096 6.31638 1.68794C7.46638 1.5661 8.59071 1.70135 9.68938 2.09369C9.21371 2.15269 8.75246 2.25235 8.30563 2.39269C7.85896 2.53302 7.42663 2.70069 7.00863 2.89569C6.59063 3.09052 6.18646 3.31352 5.79613 3.56469C5.4058 3.81602 5.02921 4.08335 4.66638 4.36669L3.05463 2.78594Z"
        fill="#ffffff" />
</svg>