<svg width="21" height="21" viewBox="0 0 21 21" fill="none" xmlns="http://www.w3.org/2000/svg">
    <path
        d="M9.75 15.7538L6.752 18.702C6.6135 18.8403 6.442 18.9095 6.2375 18.9095C6.033 18.9095 5.8615 18.832 5.723 18.677C5.568 18.5385 5.4905 18.367 5.4905 18.1625C5.4905 17.958 5.568 17.7782 5.723 17.623L9.75 13.5962V11.25H7.40375L3.352 15.302C3.2135 15.4403 3.042 15.5095 2.8375 15.5095C2.633 15.5095 2.45317 15.432 2.298 15.277C2.15967 15.1385 2.0905 14.967 2.0905 14.7625C2.0905 14.558 2.15967 14.3865 2.298 14.248L5.24625 11.25H1.475C1.26867 11.25 1.09625 11.1782 0.95775 11.0345C0.81925 10.891 0.75 10.7128 0.75 10.5C0.75 10.2937 0.821833 10.1171 0.9655 9.97025C1.109 9.82342 1.28717 9.75 1.5 9.75H5.24625L2.298 6.777C2.15967 6.6385 2.0905 6.467 2.0905 6.2625C2.0905 6.058 2.168 5.87817 2.323 5.723C2.4615 5.58467 2.633 5.5155 2.8375 5.5155C3.042 5.5155 3.22183 5.58467 3.377 5.723L7.40375 9.75H9.75V7.40375L5.698 3.377C5.55967 3.2385 5.4905 3.067 5.4905 2.8625C5.4905 2.658 5.568 2.47817 5.723 2.323C5.8615 2.18467 6.033 2.1155 6.2375 2.1155C6.442 2.1155 6.6135 2.18467 6.752 2.323L9.75 5.24625V1.5C9.75 1.29367 9.82183 1.11708 9.9655 0.97025C10.109 0.823417 10.2872 0.75 10.5 0.75C10.7063 0.75 10.8829 0.823417 11.0297 0.97025C11.1766 1.11708 11.25 1.29367 11.25 1.5V5.24625L14.223 2.323C14.3615 2.18467 14.533 2.1155 14.7375 2.1155C14.942 2.1155 15.1218 2.18467 15.277 2.323C15.4153 2.47817 15.4845 2.658 15.4845 2.8625C15.4845 3.067 15.4153 3.2385 15.277 3.377L11.25 7.40375V9.75H13.5962L17.623 5.723C17.7615 5.58467 17.933 5.5155 18.1375 5.5155C18.342 5.5155 18.5218 5.593 18.677 5.748C18.8153 5.8865 18.8845 6.058 18.8845 6.2625C18.8845 6.467 18.8153 6.6385 18.677 6.777L15.7538 9.75H19.5C19.7063 9.75 19.8829 9.82342 20.0298 9.97025C20.1766 10.1171 20.25 10.2937 20.25 10.5C20.25 10.7128 20.1766 10.891 20.0298 11.0345C19.8829 11.1782 19.7063 11.25 19.5 11.25H15.7538L18.677 14.248C18.8153 14.3865 18.8845 14.558 18.8845 14.7625C18.8845 14.967 18.8153 15.1385 18.677 15.277C18.5218 15.432 18.342 15.5095 18.1375 15.5095C17.933 15.5095 17.7615 15.432 17.623 15.277L13.5962 11.25H11.25V13.5962L15.277 17.648C15.4153 17.7865 15.4845 17.958 15.4845 18.1625C15.4845 18.367 15.407 18.5468 15.252 18.702C15.1135 18.8403 14.942 18.9095 14.7375 18.9095C14.533 18.9095 14.3615 18.8403 14.223 18.702L11.25 15.7538V19.525C11.25 19.7313 11.1766 19.9037 11.0297 20.0422C10.8829 20.1807 10.7063 20.25 10.5 20.25C10.2872 20.25 10.109 20.1782 9.9655 20.0345C9.82183 19.891 9.75 19.7128 9.75 19.5V15.7538Z"
        fill="#6E4332" />
</svg>