<svg width="21" height="21" viewBox="0 0 21 21" fill="none" xmlns="http://www.w3.org/2000/svg">
    <path
        d="M20.6275 6.6798C20.6081 5.8501 20.4527 5.02921 20.1675 4.2498C19.9158 3.58161 19.5197 2.97722 19.0075 2.4798C18.5101 1.96756 17.9057 1.57147 17.2375 1.3198C16.4581 1.03465 15.6372 0.879252 14.8075 0.859805C13.7475 0.799805 13.4075 0.799805 10.6875 0.799805C7.9675 0.799805 7.6275 0.799805 6.5675 0.859805C5.7378 0.879252 4.9169 1.03465 4.1375 1.3198C3.46931 1.57147 2.86492 1.96756 2.3675 2.4798C1.85493 2.97498 1.46168 3.58024 1.2175 4.2498C0.923661 5.02715 0.76471 5.84896 0.7475 6.6798C0.6875 7.7398 0.6875 8.0798 0.6875 10.7998C0.6875 13.5198 0.6875 13.8598 0.7475 14.9198C0.76471 15.7507 0.923661 16.5725 1.2175 17.3498C1.46168 18.0194 1.85493 18.6246 2.3675 19.1198C2.86492 19.632 3.46931 20.0281 4.1375 20.2798C4.9169 20.565 5.7378 20.7204 6.5675 20.7398C7.6275 20.7998 7.9675 20.7998 10.6875 20.7998C13.4075 20.7998 13.7475 20.7998 14.8075 20.7398C15.6372 20.7204 16.4581 20.565 17.2375 20.2798C17.9009 20.0188 18.5035 19.624 19.0076 19.1199C19.5117 18.6158 19.9065 18.0132 20.1675 17.3498C20.4527 16.5704 20.6081 15.7495 20.6275 14.9198C20.6275 13.8598 20.6875 13.5198 20.6875 10.7998C20.6875 8.0798 20.6875 7.7398 20.6275 6.6798ZM18.8275 14.7998C18.8202 15.4346 18.7053 16.0635 18.4875 16.6598C18.3202 17.0911 18.0648 17.4828 17.7376 17.81C17.4105 18.1371 17.0188 18.3925 16.5875 18.5598C15.9912 18.7776 15.3623 18.8925 14.7275 18.8998C13.7275 18.9498 13.3575 18.9598 10.7275 18.9598C8.0975 18.9598 7.7275 18.9598 6.7275 18.8998C6.06823 18.9146 5.41151 18.813 4.7875 18.5998C4.35619 18.4325 3.96448 18.1771 3.63735 17.85C3.31022 17.5228 3.05484 17.1311 2.8875 16.6998C2.66525 16.0909 2.55021 15.448 2.5475 14.7998C2.5475 13.7998 2.4875 13.4298 2.4875 10.7998C2.4875 8.1698 2.4875 7.7998 2.5475 6.7998C2.55021 6.15158 2.66525 5.50874 2.8875 4.8998C3.05484 4.4685 3.31022 4.07679 3.63735 3.74966C3.96448 3.42253 4.35619 3.16715 4.7875 2.9998C5.39643 2.77755 6.03928 2.66252 6.6875 2.6598C7.6875 2.6598 8.0575 2.5998 10.6875 2.5998C13.3175 2.5998 13.6875 2.5998 14.6875 2.6598C15.3223 2.66709 15.9512 2.78205 16.5475 2.9998C16.9788 3.16715 17.3705 3.42253 17.6976 3.74966C18.0248 4.07679 18.2802 4.4685 18.4475 4.8998C18.6834 5.5063 18.812 6.14923 18.8275 6.7998C18.8775 7.7998 18.8875 8.1698 18.8875 10.7998C18.8875 13.4298 18.8775 13.7998 18.8275 14.7998Z"
        fill="white" />
    <path
        d="M10.6875 5.65979C9.67089 5.65979 8.67713 5.96125 7.83186 6.52604C6.98659 7.09083 6.32778 7.89359 5.93875 8.8328C5.54971 9.77201 5.44792 10.8055 5.64625 11.8026C5.84458 12.7996 6.33412 13.7155 7.05296 14.4343C7.7718 15.1532 8.68766 15.6427 9.68472 15.841C10.6818 16.0394 11.7153 15.9376 12.6545 15.5485C13.5937 15.1595 14.3965 14.5007 14.9612 13.6554C15.526 12.8102 15.8275 11.8164 15.8275 10.7998C15.8275 9.43658 15.286 8.1292 14.322 7.16526C13.3581 6.20132 12.0507 5.65979 10.6875 5.65979ZM10.6875 14.1298C10.0289 14.1298 9.38505 13.9345 8.83744 13.5686C8.28982 13.2027 7.86301 12.6826 7.61097 12.0741C7.35893 11.4656 7.29298 10.7961 7.42147 10.1501C7.54996 9.50418 7.86711 8.91083 8.33282 8.44512C8.79853 7.97942 9.39188 7.66226 10.0378 7.53377C10.6838 7.40529 11.3533 7.47123 11.9618 7.72327C12.5703 7.97531 13.0904 8.40213 13.4563 8.94974C13.8222 9.49736 14.0175 10.1412 14.0175 10.7998C14.0175 11.2371 13.9314 11.6701 13.764 12.0741C13.5967 12.4781 13.3514 12.8452 13.0422 13.1545C12.7329 13.4637 12.3658 13.709 11.9618 13.8763C11.5578 14.0437 11.1248 14.1298 10.6875 14.1298Z"
        fill="white" />
    <path
        d="M16.0275 4.25983C15.7902 4.25983 15.5582 4.33021 15.3608 4.46206C15.1635 4.59392 15.0097 4.78134 14.9189 5.00061C14.828 5.21988 14.8043 5.46116 14.8506 5.69393C14.8969 5.92671 15.0112 6.14053 15.179 6.30835C15.3468 6.47618 15.5606 6.59047 15.7934 6.63677C16.0262 6.68307 16.2675 6.65931 16.4867 6.56848C16.706 6.47766 16.8934 6.32385 17.0253 6.12651C17.1571 5.92917 17.2275 5.69716 17.2275 5.45983C17.2275 5.14157 17.1011 4.83634 16.876 4.6113C16.651 4.38625 16.3458 4.25983 16.0275 4.25983Z"
        fill="white" />
</svg>