<svg width="18" height="21" viewBox="0 0 18 21" fill="none" xmlns="http://www.w3.org/2000/svg">
    <path
        d="M9.43854 0.81772C10.5305 0.80072 11.6135 0.80872 12.6965 0.80072C12.7299 2.10084 13.2502 3.34103 14.1545 4.27572C15.1323 5.15406 16.3762 5.67936 17.6875 5.76772V9.12572C16.4782 9.09601 15.2875 8.82113 14.1875 8.31772C13.7188 8.09342 13.2676 7.83436 12.8375 7.54272C12.8295 9.97572 12.8465 12.4087 12.8215 14.8337C12.7577 16.0114 12.3683 17.1483 11.6965 18.1177C11.1427 18.9183 10.4083 19.5776 9.55286 20.0422C8.69737 20.5069 7.74465 20.7639 6.77154 20.7927C5.57843 20.8465 4.3959 20.5478 3.37154 19.9337C2.5284 19.433 1.81416 18.7419 1.28594 17.9157C0.757721 17.0895 0.430186 16.1512 0.329537 15.1757C0.313537 14.7587 0.304537 14.3427 0.321537 13.9337C0.406601 13.0792 0.666203 12.2513 1.08426 11.5012C1.50233 10.7511 2.06994 10.0948 2.75196 9.57301C3.43397 9.05121 4.21585 8.675 5.04918 8.46768C5.88251 8.26035 6.74953 8.22633 7.59654 8.36772C7.61254 9.60072 7.56254 10.8337 7.56254 12.0677C7.20698 11.943 6.83029 11.8898 6.4541 11.9112C6.07792 11.9325 5.70966 12.028 5.37049 12.1921C5.03132 12.3562 4.72791 12.5857 4.47771 12.8674C4.22751 13.1492 4.03544 13.4775 3.91254 13.8337C3.78201 14.2683 3.74252 14.7252 3.79654 15.1757C3.90462 15.8627 4.26142 16.4859 4.79907 16.927C5.33672 17.368 6.01772 17.596 6.71254 17.5677C7.17873 17.554 7.63411 17.4241 8.03735 17.1897C8.44058 16.9554 8.77888 16.624 9.02154 16.2257C9.20711 15.9645 9.32434 15.6609 9.36254 15.3427C9.44654 13.8507 9.41254 12.3677 9.42154 10.8757C9.43054 7.51772 9.41354 4.16772 9.43854 0.81772Z"
        fill="#6E4332" />
</svg>