<svg width="18" height="18" viewBox="0 0 18 18" fill="none" xmlns="http://www.w3.org/2000/svg">
<path d="M1 18C0.716667 18 0.479167 17.9042 0.2875 17.7125C0.0958333 17.5208 0 17.2833 0 17C0 16.7167 0.0958333 16.4792 0.2875 16.2875C0.479167 16.0958 0.716667 16 1 16H15C15.2833 16 15.5208 16.0958 15.7125 16.2875C15.9042 16.4792 16 16.7167 16 17C16 17.2833 15.9042 17.5208 15.7125 17.7125C15.5208 17.9042 15.2833 18 15 18H1ZM4 14C2.9 14 1.95833 13.6083 1.175 12.825C0.391667 12.0417 0 11.1 0 10V2C0 1.45 0.195833 0.979167 0.5875 0.5875C0.979167 0.195833 1.45 0 2 0H16C16.55 0 17.0208 0.195833 17.4125 0.5875C17.8042 0.979167 18 1.45 18 2V5C18 5.55 17.8042 6.02083 17.4125 6.4125C17.0208 6.80417 16.55 7 16 7H14V10C14 11.1 13.6083 12.0417 12.825 12.825C12.0417 13.6083 11.1 14 10 14H4ZM4 12H10C10.55 12 11.0208 11.8042 11.4125 11.4125C11.8042 11.0208 12 10.55 12 10V2H2V10C2 10.55 2.19583 11.0208 2.5875 11.4125C2.97917 11.8042 3.45 12 4 12ZM14 5H16V2H14V5ZM4 12H2H12H4Z" fill="#6E4332"/>
</svg>
