<svg width="20" height="21" viewBox="0 0 20 21" fill="none" xmlns="http://www.w3.org/2000/svg">
<path d="M2.4 18.6H6V12.6C6 12.26 6.115 11.975 6.345 11.745C6.575 11.515 6.86 11.4 7.2 11.4H12C12.34 11.4 12.625 11.515 12.855 11.745C13.085 11.975 13.2 12.26 13.2 12.6V18.6H16.8V7.8L9.6 2.4L2.4 7.8V18.6ZM0 18.6V7.8C0 7.42 0.085 7.06 0.255 6.72C0.425 6.38 0.66 6.1 0.96 5.88L8.16 0.48C8.58 0.16 9.06 0 9.6 0C10.14 0 10.62 0.16 11.04 0.48L18.24 5.88C18.54 6.1 18.775 6.38 18.945 6.72C19.115 7.06 19.2 7.42 19.2 7.8V18.6C19.2 19.26 18.965 19.825 18.495 20.295C18.025 20.765 17.46 21 16.8 21H12C11.66 21 11.375 20.885 11.145 20.655C10.915 20.425 10.8 20.14 10.8 19.8V13.8H8.4V19.8C8.4 20.14 8.285 20.425 8.055 20.655C7.825 20.885 7.54 21 7.2 21H2.4C1.74 21 1.175 20.765 0.705 20.295C0.235 19.825 0 19.26 0 18.6Z" fill="#6E4332"/>
</svg>
