<svg width="16" height="20" viewBox="0 0 16 20" fill="none" xmlns="http://www.w3.org/2000/svg">
<path d="M8 17.6875C10.0333 15.8209 11.5417 14.125 12.525 12.6C13.5083 11.075 14 9.72086 14 8.53752C14 6.72086 13.4208 5.23336 12.2625 4.07502C11.1042 2.91669 9.68333 2.33752 8 2.33752C6.31667 2.33752 4.89583 2.91669 3.7375 4.07502C2.57917 5.23336 2 6.72086 2 8.53752C2 9.72086 2.49167 11.075 3.475 12.6C4.45833 14.125 5.96667 15.8209 8 17.6875ZM8 19.6625C7.76667 19.6625 7.53333 19.6209 7.3 19.5375C7.06667 19.4542 6.85833 19.3292 6.675 19.1625C5.59167 18.1625 4.63333 17.1875 3.8 16.2375C2.96667 15.2875 2.27083 14.3667 1.7125 13.475C1.15417 12.5834 0.729167 11.725 0.4375 10.9C0.145833 10.075 0 9.28752 0 8.53752C0 6.03752 0.804167 4.04586 2.4125 2.56252C4.02083 1.07919 5.88333 0.337524 8 0.337524C10.1167 0.337524 11.9792 1.07919 13.5875 2.56252C15.1958 4.04586 16 6.03752 16 8.53752C16 9.28752 15.8542 10.075 15.5625 10.9C15.2708 11.725 14.8458 12.5834 14.2875 13.475C13.7292 14.3667 13.0333 15.2875 12.2 16.2375C11.3667 17.1875 10.4083 18.1625 9.325 19.1625C9.14167 19.3292 8.93333 19.4542 8.7 19.5375C8.46667 19.6209 8.23333 19.6625 8 19.6625ZM8 10.3375C8.55 10.3375 9.02083 10.1417 9.4125 9.75002C9.80417 9.35836 10 8.88752 10 8.33752C10 7.78752 9.80417 7.31669 9.4125 6.92502C9.02083 6.53336 8.55 6.33752 8 6.33752C7.45 6.33752 6.97917 6.53336 6.5875 6.92502C6.19583 7.31669 6 7.78752 6 8.33752C6 8.88752 6.19583 9.35836 6.5875 9.75002C6.97917 10.1417 7.45 10.3375 8 10.3375Z" fill="#6E4332"/>
</svg>
