<svg width="20" height="14" viewBox="0 0 20 14" fill="none" xmlns="http://www.w3.org/2000/svg">
<path d="M4.97577 10.8562C5.68444 10.8562 6.37426 10.9354 7.04523 11.0937C7.71621 11.252 8.38341 11.4895 9.04685 11.8061V2.89499C8.42865 2.53312 7.77275 2.26171 7.07916 2.08078C6.38557 1.89984 5.68444 1.80937 4.97577 1.80937C4.43296 1.80937 3.89391 1.86214 3.35864 1.96769C2.82337 2.07324 2.30695 2.23156 1.80937 2.44265V11.399C2.3371 11.2181 2.86107 11.0824 3.38126 10.9919C3.90145 10.9015 4.43296 10.8562 4.97577 10.8562ZM10.8562 11.8061C11.5197 11.4895 12.1869 11.252 12.8578 11.0937C13.5288 10.9354 14.2186 10.8562 14.9273 10.8562C15.4701 10.8562 16.0016 10.9015 16.5218 10.9919C17.042 11.0824 17.566 11.2181 18.0937 11.399V2.44265C17.5961 2.23156 17.0797 2.07324 16.5444 1.96769C16.0092 1.86214 15.4701 1.80937 14.9273 1.80937C14.2186 1.80937 13.5175 1.89984 12.8239 2.08078C12.1303 2.26171 11.4744 2.53312 10.8562 2.89499V11.8061ZM9.95153 14C9.74044 14 9.54066 13.9736 9.35218 13.9208C9.1637 13.8681 8.98654 13.7964 8.82068 13.706C8.23263 13.3592 7.61443 13.0991 6.96607 12.9257C6.31772 12.7523 5.65428 12.6656 4.97577 12.6656C4.34249 12.6656 3.72052 12.7485 3.10985 12.9144C2.49919 13.0802 1.91492 13.3139 1.35703 13.6155C1.04039 13.7814 0.735057 13.7738 0.441034 13.5929C0.147011 13.412 0 13.1481 0 12.8013V1.89984C0 1.73398 0.0414647 1.57566 0.124394 1.42488C0.207324 1.2741 0.331718 1.16101 0.497577 1.08562C1.19117 0.723748 1.91492 0.452342 2.66882 0.271405C3.42272 0.0904685 4.19171 0 4.97577 0C5.8503 0 6.70598 0.113086 7.54281 0.339257C8.37964 0.565428 9.18255 0.904685 9.95153 1.35703C10.7205 0.904685 11.5234 0.565428 12.3603 0.339257C13.1971 0.113086 14.0528 0 14.9273 0C15.7114 0 16.4803 0.0904685 17.2342 0.271405C17.9882 0.452342 18.7119 0.723748 19.4055 1.08562C19.5714 1.16101 19.6957 1.2741 19.7787 1.42488C19.8616 1.57566 19.9031 1.73398 19.9031 1.89984V12.8013C19.9031 13.1481 19.7561 13.412 19.462 13.5929C19.168 13.7738 18.8627 13.7814 18.546 13.6155C17.9882 13.3139 17.4039 13.0802 16.7932 12.9144C16.1826 12.7485 15.5606 12.6656 14.9273 12.6656C14.2488 12.6656 13.5854 12.7523 12.937 12.9257C12.2886 13.0991 11.6704 13.3592 11.0824 13.706C10.9165 13.7964 10.7394 13.8681 10.5509 13.9208C10.3624 13.9736 10.1626 14 9.95153 14ZM11.7609 4.31987C11.7609 4.18417 11.8099 4.0447 11.9079 3.90145C12.0059 3.75821 12.1152 3.66397 12.2359 3.61874C12.6731 3.46796 13.1104 3.35487 13.5477 3.27948C13.9849 3.20409 14.4448 3.1664 14.9273 3.1664C15.2289 3.1664 15.5267 3.18525 15.8207 3.22294C16.1147 3.26064 16.405 3.30964 16.6914 3.36995C16.8271 3.40011 16.944 3.4755 17.042 3.59612C17.14 3.71675 17.189 3.85245 17.189 4.00323C17.189 4.25956 17.1061 4.44803 16.9402 4.56866C16.7744 4.68928 16.5633 4.71944 16.3069 4.65913C16.0959 4.61389 15.8735 4.57997 15.6397 4.55735C15.406 4.53473 15.1686 4.52342 14.9273 4.52342C14.5353 4.52342 14.1508 4.56112 13.7738 4.63651C13.3969 4.7119 13.035 4.80991 12.6882 4.93053C12.4168 5.03608 12.1944 5.02854 12.021 4.90792C11.8476 4.78729 11.7609 4.59128 11.7609 4.31987ZM11.7609 9.29564C11.7609 9.15993 11.8099 9.02046 11.9079 8.87722C12.0059 8.73398 12.1152 8.63974 12.2359 8.59451C12.6731 8.44373 13.1104 8.33064 13.5477 8.25525C13.9849 8.17986 14.4448 8.14216 14.9273 8.14216C15.2289 8.14216 15.5267 8.16101 15.8207 8.19871C16.1147 8.2364 16.405 8.28541 16.6914 8.34572C16.8271 8.37587 16.944 8.45127 17.042 8.57189C17.14 8.69251 17.189 8.82822 17.189 8.979C17.189 9.23533 17.1061 9.4238 16.9402 9.54443C16.7744 9.66505 16.5633 9.69521 16.3069 9.63489C16.0959 9.58966 15.8735 9.55573 15.6397 9.53312C15.406 9.5105 15.1686 9.49919 14.9273 9.49919C14.5353 9.49919 14.1508 9.53312 13.7738 9.60097C13.3969 9.66882 13.035 9.76306 12.6882 9.88368C12.4168 9.98923 12.1944 9.98546 12.021 9.87237C11.8476 9.75929 11.7609 9.56704 11.7609 9.29564ZM11.7609 6.80775C11.7609 6.67205 11.8099 6.53258 11.9079 6.38934C12.0059 6.2461 12.1152 6.15186 12.2359 6.10662C12.6731 5.95584 13.1104 5.84276 13.5477 5.76737C13.9849 5.69198 14.4448 5.65428 14.9273 5.65428C15.2289 5.65428 15.5267 5.67313 15.8207 5.71082C16.1147 5.74852 16.405 5.79752 16.6914 5.85784C16.8271 5.88799 16.944 5.96338 17.042 6.08401C17.14 6.20463 17.189 6.34033 17.189 6.49111C17.189 6.74744 17.1061 6.93592 16.9402 7.05654C16.7744 7.17717 16.5633 7.20732 16.3069 7.14701C16.0959 7.10178 15.8735 7.06785 15.6397 7.04523C15.406 7.02262 15.1686 7.01131 14.9273 7.01131C14.5353 7.01131 14.1508 7.049 13.7738 7.12439C13.3969 7.19978 13.035 7.29779 12.6882 7.41842C12.4168 7.52396 12.1944 7.51642 12.021 7.3958C11.8476 7.27518 11.7609 7.07916 11.7609 6.80775Z" fill="#6E4332"/>
</svg>
