<svg width="18" height="18" viewBox="0 0 18 18" fill="none" xmlns="http://www.w3.org/2000/svg">
<path d="M5.41154 14.0734L8.56154 12.1734L11.7115 14.0984L10.8865 10.4984L13.6615 8.09842L10.0115 7.77343L8.56154 4.37343L7.11154 7.74843L3.46154 8.07342L6.23654 10.4984L5.41154 14.0734ZM8.56154 14.5234L4.41154 17.0234C4.22821 17.1401 4.03654 17.1901 3.83654 17.1734C3.63654 17.1568 3.46154 17.0901 3.31154 16.9734C3.16154 16.8568 3.04487 16.7109 2.96154 16.5359C2.87821 16.3609 2.86154 16.1651 2.91154 15.9484L4.01154 11.2234L0.336538 8.04842C0.169872 7.89843 0.0657051 7.72759 0.0240385 7.53592C-0.0176282 7.34426 -0.0051282 7.15676 0.0615385 6.97342C0.128205 6.79009 0.228205 6.64009 0.361538 6.52343C0.494872 6.40676 0.678205 6.33176 0.911539 6.29843L5.76154 5.87343L7.63654 1.42343C7.71987 1.22343 7.84904 1.07343 8.02404 0.973425C8.19904 0.873425 8.37821 0.823425 8.56154 0.823425C8.74487 0.823425 8.92404 0.873425 9.09904 0.973425C9.27404 1.07343 9.40321 1.22343 9.48654 1.42343L11.3615 5.87343L16.2115 6.29843C16.4449 6.33176 16.6282 6.40676 16.7615 6.52343C16.8949 6.64009 16.9949 6.79009 17.0615 6.97342C17.1282 7.15676 17.1407 7.34426 17.099 7.53592C17.0574 7.72759 16.9532 7.89843 16.7865 8.04842L13.1115 11.2234L14.2115 15.9484C14.2615 16.1651 14.2449 16.3609 14.1615 16.5359C14.0782 16.7109 13.9615 16.8568 13.8115 16.9734C13.6615 17.0901 13.4865 17.1568 13.2865 17.1734C13.0865 17.1901 12.8949 17.1401 12.7115 17.0234L8.56154 14.5234Z" fill="#6E4332"/>
</svg>
