<svg width="16" height="17" viewBox="0 0 16 17" fill="none" xmlns="http://www.w3.org/2000/svg">
    <path
        d="M6.123 16.897C4.4705 16.4778 3.12025 15.6025 2.07225 14.271C1.02408 12.9397 0.5 11.399 0.5 9.649C0.5 8.75033 0.65675 7.89108 0.97025 7.07125C1.28375 6.25125 1.7225 5.499 2.2865 4.8145C2.425 4.65933 2.59233 4.57917 2.7885 4.574C2.98467 4.56883 3.16542 4.649 3.33075 4.8145C3.46925 4.95283 3.54108 5.12167 3.54625 5.321C3.55125 5.5205 3.48458 5.708 3.34625 5.8835C2.90775 6.40667 2.57375 6.98942 2.34425 7.63175C2.11475 8.27408 2 8.9465 2 9.649C2 11.0247 2.41508 12.2481 3.24525 13.3192C4.07542 14.3904 5.13792 15.1016 6.43275 15.4528C6.59808 15.5002 6.734 15.5932 6.8405 15.7317C6.94683 15.8701 7 16.022 7 16.1875C7 16.4375 6.91375 16.6343 6.74125 16.7778C6.56892 16.9214 6.36283 16.9612 6.123 16.897ZM9.877 16.9163C9.63717 16.9804 9.43108 16.9381 9.25875 16.7892C9.08625 16.6406 9 16.4412 9 16.1912C9 16.0361 9.05317 15.8893 9.1595 15.751C9.266 15.6125 9.40192 15.5163 9.56725 15.4625C10.8558 15.0688 11.9167 14.3438 12.75 13.2875C13.5833 12.231 14 11.0182 14 9.649C14 7.98233 13.4167 6.56567 12.25 5.399C11.0833 4.23233 9.66667 3.649 8 3.649H7.64625L8.46925 4.472C8.61408 4.617 8.6865 4.79267 8.6865 4.999C8.6865 5.2055 8.61408 5.38117 8.46925 5.526C8.32442 5.67083 8.14875 5.74325 7.94225 5.74325C7.73592 5.74325 7.56033 5.67083 7.4155 5.526L5.42125 3.53175C5.32758 3.43808 5.2615 3.33933 5.223 3.2355C5.18467 3.13167 5.1655 3.0195 5.1655 2.899C5.1655 2.7785 5.18467 2.66633 5.223 2.5625C5.2615 2.45867 5.32758 2.35992 5.42125 2.26625L7.4155 0.271999C7.56033 0.127165 7.73592 0.0547485 7.94225 0.0547485C8.14875 0.0547485 8.32442 0.127165 8.46925 0.271999C8.61408 0.416999 8.6865 0.592666 8.6865 0.798999C8.6865 1.0055 8.61408 1.18117 8.46925 1.326L7.64625 2.149H8C10.0923 2.149 11.8654 2.87592 13.3193 4.32975C14.7731 5.78358 15.5 7.55667 15.5 9.649C15.5 11.3823 14.9743 12.9157 13.923 14.249C12.8717 15.5823 11.523 16.4714 9.877 16.9163Z"
        fill="#6E4332" />
</svg>