<svg width="27" height="27" viewBox="0 0 27 27" fill="none" xmlns="http://www.w3.org/2000/svg">
    <path
        d="M17.0828 26.2247C14.3626 27.2147 11.7017 27.114 9.10034 25.9225C6.49884 24.7307 4.69958 22.7652 3.70254 20.0259L0.355405 10.8297C0.131551 10.2146 0.157824 9.6052 0.434224 9.00137C0.710624 8.39755 1.15203 7.98527 1.75845 7.76456L20.1067 1.08634C21.3863 0.62062 22.6417 0.671864 23.8731 1.24007C25.1044 1.80828 25.9548 2.73725 26.4242 4.02697C26.9038 5.34475 26.8636 6.63308 26.3034 7.89196C25.7434 9.15074 24.8181 10.015 23.5274 10.4848L22.4581 10.874L23.2054 12.9274C24.1964 15.6502 24.0967 18.3022 22.9063 20.8835C21.7155 23.4646 19.7744 25.245 17.0828 26.2247ZM4.35823 14.9074L19.4131 9.42786L17.6343 4.54067L2.57943 10.0202L4.35823 14.9074ZM16.2619 23.9694C18.332 23.216 19.8263 21.8446 20.7447 19.8553C21.6631 17.8661 21.742 15.8266 20.9814 13.7369L20.234 11.6835L5.17921 17.163L5.92657 19.2164C6.69072 21.3159 8.08203 22.8229 10.1005 23.7376C12.119 24.6525 14.1728 24.7298 16.2619 23.9694ZM21.6371 8.61838L22.7065 8.22916C23.3813 7.98353 23.8625 7.53137 24.15 6.8727C24.4378 6.21394 24.4545 5.53519 24.2002 4.83645C23.9581 4.17129 23.5161 3.69624 22.8742 3.41131C22.2324 3.12637 21.5835 3.10326 20.9277 3.34197L19.8583 3.73119L21.6371 8.61838Z"
        fill="#6E4332" />
</svg>